<svg width="900" height="900" viewBox="0 0 900 900" fill="none" xmlns="http://www.w3.org/2000/svg">
<path d="M815.256 399.906H611.532C611.532 399.906 631.728 344.736 662.814 344.736C693.9 344.736 703.638 382.824 703.638 382.824C703.638 382.824 724.608 362.124 741.852 362.124C759.096 362.124 774 389.466 774 389.466C774 389.466 798.408 374.76 815.256 399.906Z" fill="#EBEBEB"/>
<path d="M180 262.998H84.7441C84.7441 262.998 106.02 232.2 122.778 232.2C139.536 232.2 144.486 252.756 144.486 252.756C144.486 252.756 156.33 243.162 167.274 244.872C178.218 246.582 180 262.998 180 262.998Z" fill="#EBEBEB"/>
<path d="M650.736 113.166H555.516C555.516 113.166 576.792 82.332 593.55 82.332C610.308 82.332 615.276 102.888 615.276 102.888C615.276 102.888 627.102 93.294 638.064 95.004C649.026 96.714 650.736 113.166 650.736 113.166Z" fill="#EBEBEB"/>
<path d="M353.106 203.688H167.706C167.706 203.688 193.104 146.988 220.266 143.442C247.428 139.896 260.424 185.58 260.424 185.58C260.424 185.58 277.956 169.38 291.726 169.38C305.496 169.38 316.134 190.638 316.134 190.638C316.134 190.638 343.656 176.13 353.106 203.688Z" fill="#EBEBEB"/>
<path d="M324 518.238H138.6C138.6 518.238 163.998 461.538 191.16 457.992C218.322 454.446 231.318 500.112 231.318 500.112C231.318 500.112 248.85 483.912 262.62 483.912C276.39 483.912 287.028 505.17 287.028 505.17C287.028 505.17 314.496 490.68 324 518.238Z" fill="#EBEBEB"/>
<path d="M87.876 645.804L178.398 645.372L268.938 645.21L450 644.904L631.062 645.21L721.602 645.372L812.124 645.804L721.602 646.254L631.062 646.398L450 646.704L268.938 646.398L178.398 646.236L87.876 645.804Z" fill="#263238"/>
<path d="M763.866 595.224C757.8 587.394 750.906 578.772 751.266 568.368C751.662 558.792 754.866 548.154 763.686 543.042C766.206 541.602 768.042 541.098 768.852 544.32C770.076 549.252 767.97 555.246 766.926 560.034C765.483 566.179 764.627 572.447 764.37 578.754C764.244 583.2 764.55 587.628 764.532 592.074C764.532 592.632 764.532 593.19 764.532 593.748C764.532 593.946 764.532 594.18 764.532 594.378L764.694 594.612C764.728 594.685 764.745 594.765 764.745 594.846C764.745 594.927 764.728 595.007 764.694 595.08C764.679 595.141 764.648 595.197 764.604 595.242C764.504 595.338 764.37 595.389 764.231 595.386C764.093 595.383 763.961 595.324 763.866 595.224Z" fill="#FFC727"/>
<path d="M764.676 595.242C759.726 588.042 753.875 580.698 754.649 571.608C755.077 567.371 756.171 563.228 757.889 559.332C758.645 557.532 760.841 552.258 763.146 552.132C767.322 551.916 761.742 568.674 761.472 570.654C760.637 577.937 761.71 585.313 764.585 592.056C764.585 592.614 764.585 593.172 764.585 593.73C762.467 588.999 761.141 583.951 760.661 578.79C760.031 571.59 762.461 565.668 763.757 558.774C764.045 557.298 765.198 552.582 762.642 552.96C760.95 553.212 758.771 558.36 758.303 559.476C756.693 563.174 755.649 567.094 755.207 571.104C754.343 580.284 759.96 587.736 764.784 595.062C764.766 595.131 764.729 595.194 764.676 595.242Z" fill="white"/>
<path d="M762.156 603.18L761.076 603.648C761.035 603.674 760.988 603.687 760.94 603.687C760.893 603.687 760.846 603.674 760.806 603.648C760.721 603.589 760.662 603.502 760.639 603.402C760.615 603.302 760.63 603.198 760.68 603.108C760.718 603.038 760.783 602.987 760.86 602.964H761.022L761.346 602.856C765.63 597.6 770.759 593.082 775.007 587.754C779.255 582.426 782.747 577.314 787.175 572.562C789.965 569.556 804.725 555.498 807.875 564.192C809.261 568.044 806.219 573.57 804.275 576.792C801.694 581.065 798.358 584.835 794.429 587.916C784.907 595.422 773.19 598.302 762.156 603.18Z" fill="#FFC727"/>
<path d="M784.206 590.814C788.051 588.266 791.512 585.18 794.484 581.652C795.51 580.428 800.406 574.452 798.786 572.652C797.76 571.392 794.988 573.03 794.052 573.534C790.074 575.712 787.212 579.564 784.17 582.822C777.974 589.427 771.302 595.57 764.208 601.2L762.678 602.01L761.4 602.694L760.968 602.928L760.644 603.126C760.598 603.217 760.586 603.32 760.609 603.419C760.632 603.518 760.689 603.605 760.77 603.666L761.76 603.144L761.04 603.702L761.904 603.306L762.12 603.216C762.516 602.928 762.93 602.622 763.308 602.316C770.495 598.898 777.473 595.057 784.206 590.814ZM765.918 600.264C770.076 596.988 774.036 593.478 777.87 589.806C780.948 586.854 783.882 583.758 786.744 580.608C788.307 578.769 790.024 577.065 791.874 575.514C793.332 574.362 799.074 570.6 797.634 575.91C796.626 579.762 791.694 584.064 788.832 586.512C785.617 589.217 782.165 591.627 778.518 593.712C774.396 595.998 770.13 598.104 765.918 600.264Z" fill="white"/>
<path d="M743.238 623.34C743.145 623.264 743.066 623.173 743.004 623.07C738.09 615.456 730.404 606.186 730.818 596.574C731.16 589.482 735.066 579.96 742.104 577.062C750.06 573.804 748.512 588.816 748.296 592.65C747.347 602.928 745.821 613.144 743.724 623.25V623.43C743.562 623.592 743.4 623.484 743.238 623.34Z" fill="#FFC727"/>
<path d="M743.634 623.448C743.634 622.836 743.544 622.224 743.508 621.648C743.076 614.646 742.932 607.608 743.166 600.588C743.166 598.788 744.624 585.252 741.096 585.9C738.972 586.296 737.694 591.3 737.226 593.01C736.392 595.988 736.063 599.085 736.254 602.172C736.722 609.264 740.34 615.672 742.86 622.26C742.986 622.566 743.112 622.872 743.22 623.196V623.394C743.4 623.484 743.562 623.592 743.634 623.448ZM737.352 605.916C736.74 602.815 736.649 599.633 737.082 596.502C737.37 594.432 738.63 586.926 741.276 586.782C742.662 586.692 742.518 587.574 742.788 589.158C742.91 589.885 742.988 590.618 743.022 591.354C743.022 593.154 743.022 594.954 742.878 596.754C742.716 599.922 742.626 603.09 742.608 606.276C742.608 611.478 742.77 616.662 743.112 621.846C741.294 616.5 738.486 611.46 737.352 605.916Z" fill="white"/>
<path d="M768.006 625.878C758.213 630.015 747.408 631.137 736.974 629.1H736.794C736.725 629.042 736.676 628.964 736.653 628.877C736.63 628.79 736.636 628.698 736.668 628.614C736.697 628.522 736.759 628.444 736.842 628.394C736.925 628.344 737.023 628.326 737.118 628.344L737.766 628.452C748.566 622.494 759.492 616.698 770.256 610.452C772.776 608.994 789.12 600.03 790.056 606.402C790.596 610.344 784.656 614.952 781.992 617.202C777.809 620.803 773.09 623.73 768.006 625.878Z" fill="#FFC727"/>
<path d="M779.4 613.584C780.048 612.738 780.588 611.676 779.4 611.172C777.006 610.182 769.428 614.556 767.268 615.654C758.268 620.226 749.268 623.88 739.944 627.606L737.586 628.56H736.668C736.633 628.644 736.626 628.737 736.649 628.824C736.672 628.912 736.723 628.99 736.794 629.046H737.046C737.442 629.046 737.874 629.046 738.288 629.046C744.869 629.094 751.416 628.11 757.692 626.13C761.652 624.88 765.47 623.221 769.086 621.18C772.434 619.2 777.114 616.698 779.4 613.584ZM738.738 628.542H738.144C738.486 628.434 738.81 628.344 739.134 628.218C746.516 625.793 753.731 622.889 760.734 619.524C764.334 617.724 767.682 615.924 771.282 614.25C772.794 613.566 777.024 611.514 778.482 612.162C779.94 612.81 778.392 613.854 777.618 614.574C776.844 615.294 775.962 615.888 775.404 616.374C764.798 624.195 751.987 628.455 738.81 628.542H738.738Z" fill="white"/>
<path d="M716.4 645.804L715.338 644.346L719.154 641.466C724.248 637.542 729.306 633.582 734.292 629.514C737.154 627.192 739.944 624.87 742.644 622.458C742.731 622.365 742.828 622.28 742.932 622.206L743.58 621.594C743.808 621.402 744.042 621.186 744.282 620.946C750.418 615.526 755.66 609.172 759.816 602.118C761.184 599.724 762.426 597.276 763.614 594.792C763.74 594.558 763.848 594.324 763.956 594.09C763.993 594.028 764.023 593.961 764.046 593.892C764.172 593.64 764.28 593.406 764.388 593.136L764.658 592.578C768.258 584.892 771.102 576.9 774.198 569.07C775.08 566.838 775.998 564.588 776.88 562.356L777.042 561.96C777.042 561.798 777.168 561.618 777.24 561.456C781.218 551.574 785.304 541.656 789.012 531.756C789.138 531.378 789.696 531.648 789.552 532.008C787.14 538.686 784.872 545.4 782.568 552.132C782.28 553.032 781.956 553.932 781.65 554.814C781.038 556.614 780.444 558.414 779.85 560.106C778.65 563.706 777.384 567.222 776.052 570.654C772.606 580.644 768.548 590.413 763.902 599.904C763.542 600.606 763.164 601.29 762.786 601.974C762.408 602.658 762.318 602.856 762.048 603.252C761.778 603.648 761.508 604.242 761.202 604.728C756.001 613.054 749.364 620.392 741.6 626.4L740.016 627.696L739.278 628.308C739.138 628.406 739.006 628.514 738.882 628.632L738.36 629.028L737.964 629.334L736.578 630.414C731.52 634.374 726.39 638.262 721.278 642.132C719.586 643.284 717.948 644.544 716.4 645.804Z" fill="#FFC727"/>
<path d="M779.274 534.024C781.776 526.122 789.228 512.946 799.29 514.692C801.183 514.97 802.908 515.934 804.136 517.401C805.364 518.868 806.01 520.736 805.95 522.648C805.95 527.4 802.656 531.882 799.848 535.446C792.36 544.968 784.008 553.698 777.186 563.742C777.186 563.85 776.592 564.606 776.448 564.84C776.304 565.074 776.016 564.84 776.142 564.588L776.808 563.598C776.844 553.86 776.286 543.402 779.274 534.024Z" fill="#FFC727"/>
<path d="M777.204 563.814C777.204 563.814 777.204 563.67 777.294 563.598C778.547 560.588 779.977 557.655 781.578 554.814C785.01 548.953 788.791 543.303 792.9 537.894C794.466 535.788 802.332 525.762 795.816 525.06C793.08 524.772 790.272 527.094 788.4 528.804C785.415 531.566 783.01 534.894 781.326 538.596C777.87 545.904 777.096 553.986 776.97 561.996C776.97 562.356 776.97 562.734 776.97 563.094L776.826 563.418C776.785 563.485 776.755 563.558 776.736 563.634C776.718 563.68 776.718 563.732 776.736 563.778C776.744 563.817 776.76 563.853 776.783 563.885C776.806 563.917 776.835 563.944 776.869 563.964C776.903 563.984 776.94 563.997 776.979 564.003C777.018 564.008 777.058 564.005 777.096 563.994C777.126 563.974 777.151 563.947 777.169 563.916C777.188 563.885 777.2 563.85 777.204 563.814ZM777.204 561.456C777.282 554.839 778.362 548.273 780.408 541.98C781.578 538.727 783.222 535.664 785.286 532.89C786.209 531.667 787.232 530.523 788.346 529.47C789.174 528.672 790.071 527.949 791.028 527.31C793.116 525.906 795.942 525.132 797.022 526.194C798.372 527.49 797.868 528.624 796.86 530.838C796.513 531.586 796.122 532.313 795.69 533.016C794.613 534.755 793.447 536.437 792.198 538.056C790.164 540.792 788.166 543.456 786.258 546.318C784.962 548.208 783.702 550.152 782.532 552.132C780.486 555.523 778.682 559.054 777.132 562.698C777.114 562.284 777.15 561.87 777.168 561.456H777.204Z" fill="white"/>
<path d="M99.7918 582.588C104.67 587.106 109.26 591.93 113.778 596.79C116.352 599.562 118.872 602.352 121.464 605.106C124.29 608.148 126.972 611.55 130.95 613.044C131.127 613.119 131.291 613.223 131.436 613.35C131.457 613.435 131.456 613.523 131.433 613.607C131.41 613.691 131.365 613.768 131.304 613.83C131.242 613.891 131.165 613.936 131.081 613.959C130.997 613.982 130.908 613.983 130.824 613.962L130.554 613.854H130.5C129.273 613.713 128.065 613.435 126.9 613.026C123.624 612.255 120.397 611.293 117.234 610.146C110.728 607.85 104.536 604.748 98.8018 600.912C93.6847 597.467 89.0481 593.357 85.0138 588.69C81.7918 584.946 76.9498 579.42 76.0138 574.38C75.2038 569.826 81.0898 570.78 83.8078 571.518C89.9998 573.426 95.1478 578.34 99.7918 582.588Z" fill="#FFC727"/>
<path d="M84.96 579.258C83.556 581.22 88.866 587.16 91.098 589.806C94.6184 593.979 98.6386 597.703 103.068 600.894C111.055 606.556 119.948 610.817 129.366 613.494L130.5 613.836H130.608L130.86 613.926C130.946 613.951 131.037 613.953 131.123 613.932C131.21 613.911 131.29 613.866 131.354 613.804C131.418 613.742 131.464 613.664 131.488 613.577C131.512 613.491 131.513 613.4 131.49 613.314C130.734 612.972 130.014 612.612 129.312 612.216C128.61 611.82 128.016 611.496 127.404 611.118C120.6 607.068 114.696 601.434 108.9 596.07C102.096 589.842 86.832 576.666 84.96 579.258ZM128.412 612.45C129.348 612.972 130.32 613.458 131.274 613.908L128.988 613.152C120.767 610.526 112.939 606.802 105.714 602.082C101.662 599.394 97.9082 596.28 94.518 592.794C92.7058 590.92 91.0106 588.936 89.442 586.854C88.794 585.972 84.51 580.77 85.644 579.744C86.436 579.042 91.35 582.246 91.458 582.3C92.43 582.93 93.402 583.614 94.338 584.316C96.3 585.738 98.172 587.286 100.008 588.852C104.004 592.272 107.802 595.908 111.672 599.454C116.724 604.426 122.342 608.788 128.412 612.45Z" fill="white"/>
<path d="M136.656 562.374C141.102 570.978 142.2 580.86 142.2 590.4C142.2 595.53 142.092 600.642 142.038 605.736C141.744 610.307 141.907 614.896 142.524 619.434C142.524 619.614 142.524 619.83 142.65 620.028C142.915 621.27 143.32 622.477 143.856 623.628C143.873 623.665 143.883 623.705 143.883 623.745C143.883 623.786 143.873 623.826 143.856 623.862L144.072 624.204C144.072 624.294 144.072 624.402 143.946 624.33L143.622 624.042C143.562 624.054 143.501 624.045 143.448 624.015C143.395 623.985 143.354 623.937 143.334 623.88V623.736L143.028 623.448C135.558 616.554 131.382 604.908 128.628 595.548C125.874 586.188 124.47 576.216 126.936 566.748C127.566 564.354 128.628 558.648 131.526 557.748C134.424 556.848 135.72 560.538 136.656 562.374Z" fill="#FFC727"/>
<path d="M132.714 567.936C129.78 568.44 130.41 576.468 130.5 578.43C130.873 584.376 131.764 590.279 133.164 596.07C134.981 605.523 138.267 614.633 142.902 623.07L143.01 623.394C143.103 623.505 143.205 623.607 143.316 623.7C143.306 623.748 143.306 623.797 143.316 623.844C143.339 623.899 143.38 623.945 143.432 623.974C143.484 624.004 143.545 624.015 143.604 624.006L143.496 623.556C143.172 622.386 142.902 621.18 142.65 619.956C142.65 619.74 142.56 619.542 142.524 619.362C141.127 610.972 140.28 602.5 139.986 594C139.64 588.081 138.748 582.206 137.322 576.45C136.926 575.046 135.18 567.54 132.714 567.936ZM135.342 572.202C139.356 581.472 139.23 592.488 139.896 602.388C140.186 609.063 141.12 615.693 142.686 622.188C138.765 614.408 135.902 606.139 134.172 597.6C133.014 592.77 132.131 587.878 131.526 582.948C131.169 580.276 131.019 577.58 131.076 574.884C131.092 573.264 131.297 571.651 131.688 570.078C132.696 567.216 134.658 570.6 135.342 572.202Z" fill="white"/>
<path d="M159.822 636.732C159.864 636.812 159.886 636.902 159.886 636.993C159.886 637.084 159.864 637.174 159.822 637.254H160.02C160.063 637.254 160.104 637.271 160.134 637.301C160.165 637.332 160.182 637.373 160.182 637.416C160.187 637.435 160.188 637.456 160.185 637.475C160.181 637.495 160.173 637.514 160.16 637.529C160.148 637.545 160.132 637.558 160.114 637.566C160.096 637.575 160.076 637.579 160.056 637.578C148.554 639.378 135.756 639.918 124.434 636.84C119.641 635.562 115.087 633.513 110.952 630.774C108.144 628.884 102.474 625.05 102.15 621.252C101.52 613.62 121.752 621.54 124.794 622.746C130.338 624.942 135.702 627.588 141.192 629.946C147.222 632.466 153.432 634.518 159.624 636.606C159.7 636.63 159.768 636.673 159.822 636.732Z" fill="#FFC727"/>
<path d="M159.804 636.732C159.192 636.732 158.58 636.624 158.004 636.534C147.942 635.414 138.112 632.748 128.862 628.632C124.275 626.439 119.512 624.632 114.624 623.232C113.4 622.944 108.9 621.432 109.62 624.402C109.998 625.896 117.414 630.18 119.43 631.134C124.067 633.241 128.946 634.771 133.956 635.688C142.337 637.35 150.894 637.954 159.426 637.488H160.164C160.164 637.468 160.16 637.447 160.152 637.428C160.143 637.41 160.131 637.393 160.116 637.379C160.1 637.366 160.082 637.355 160.063 637.349C160.043 637.343 160.022 637.341 160.002 637.344H159.822C159.887 637.254 159.92 637.146 159.917 637.035C159.913 636.924 159.874 636.818 159.804 636.732ZM138.204 635.85C133.196 635.164 128.274 633.957 123.516 632.25C121.631 631.555 119.792 630.744 118.008 629.82C116.596 629.115 115.236 628.309 113.94 627.408C110.826 625.14 110.196 624.312 110.466 623.718C110.736 623.124 111.294 623.142 113.814 623.556C115.447 623.855 117.045 624.32 118.584 624.942C120.762 625.77 122.94 626.742 125.082 627.606C129.402 629.406 133.686 631.386 138.132 632.916C144.484 635.155 151.107 636.535 157.824 637.02C151.257 637.179 144.688 636.788 138.186 635.85H138.204Z" fill="white"/>
<path d="M158.616 603.684C161.352 606.813 163.378 610.497 164.556 614.484C167.184 622.314 168.156 630.684 170.172 638.586C170.496 639.774 170.82 640.962 171.198 642.186C171.198 642.312 172.026 643.608 171.936 643.536C171.846 643.464 171.522 643.14 170.892 642.474C167.778 639.216 158.508 629.154 154.962 622.35C152.625 618.141 150.811 613.661 149.562 609.012C149.058 606.816 148.122 601.812 150.318 600.12C152.514 598.428 157.122 602.1 158.616 603.684Z" fill="#FFC727"/>
<path d="M153.9 605.61C150.822 606.888 157.194 620.442 157.986 622.224C160.961 628.81 164.779 634.981 169.344 640.584C169.848 641.232 170.37 641.844 170.892 642.474L171.918 643.536C171.918 643.536 171.252 642.312 171.18 642.168C171.108 642.024 171.072 641.754 171 641.556C170.712 640.584 170.424 639.594 170.19 638.622C168.156 633.222 166.23 627.822 164.088 622.566C162.588 618.726 160.782 615.012 158.688 611.46C158.22 610.65 155.25 605.052 153.9 605.61ZM156.42 608.4C163.314 618.282 165.816 630.18 170.37 641.16C170.37 641.358 170.514 641.52 170.586 641.7L170.01 640.98C166.345 636.261 163.127 631.211 160.398 625.896C158.75 622.651 157.302 619.309 156.06 615.888C155.291 614.037 154.647 612.137 154.134 610.2C153.954 609.354 153.54 607.014 154.134 606.726C154.728 606.438 155.97 607.77 156.42 608.4Z" fill="white"/>
<path d="M98.8916 525.978C109.692 544.086 104.292 567.378 113.832 585.99V586.08C114.12 586.638 114.426 587.214 114.75 587.772C114.779 587.828 114.795 587.89 114.795 587.953C114.796 588.016 114.782 588.078 114.754 588.134C114.725 588.19 114.684 588.239 114.634 588.276C114.583 588.314 114.524 588.338 114.462 588.348C114.403 588.351 114.345 588.338 114.294 588.309C114.243 588.281 114.201 588.238 114.174 588.186L113.958 587.79C105.354 579.798 98.3876 568.944 93.2576 558.45C88.8116 549.306 85.8776 539.064 87.4076 528.858C87.7676 526.338 88.3436 521.316 91.3856 520.38C94.4276 519.444 97.5596 523.8 98.8916 525.978Z" fill="#FFC727"/>
<path d="M95.1659 532.638C93.8879 533.052 93.7259 534.924 93.5819 535.95C93.2133 538.514 93.1589 541.113 93.4199 543.69C93.9547 548.977 95.2837 554.153 97.3619 559.044C100.632 567.521 104.936 575.562 110.178 582.984C111.384 584.64 112.662 586.242 114.012 587.772L114.516 588.348C114.578 588.338 114.637 588.314 114.688 588.276C114.739 588.239 114.78 588.19 114.808 588.134C114.836 588.078 114.85 588.015 114.85 587.953C114.849 587.89 114.833 587.828 114.804 587.772C114.48 587.232 114.21 586.692 113.904 586.134C113.894 586.086 113.894 586.037 113.904 585.99C111.713 582.408 109.874 578.623 108.414 574.686C106.398 568.472 104.78 562.135 103.572 555.714C102.96 553.212 99.5219 531.198 95.1659 532.638ZM98.0279 536.238C100.242 540.972 100.944 546.372 102.078 551.43C103.212 556.488 104.31 561.672 105.516 566.766C106.486 570.822 107.792 574.789 109.422 578.628C110.779 581.83 112.424 584.903 114.336 587.808C112.171 585.202 110.175 582.46 108.36 579.6V579.474C105.183 574.297 102.327 568.928 99.8099 563.4C99.7874 563.331 99.7572 563.264 99.7199 563.202C97.3946 558.376 95.6601 553.287 94.5539 548.046C93.9854 545.191 93.7379 542.28 93.8159 539.37C93.9779 536.058 94.4459 533.412 95.6159 533.376C96.3359 533.304 97.3799 534.942 98.0279 536.4V536.238Z" fill="white"/>
<path d="M100.242 563.13C103.212 568.35 106.308 573.552 109.422 578.718C110.886 581.118 112.356 583.518 113.832 585.918C113.822 585.966 113.822 586.015 113.832 586.062L115.416 588.69C120.204 596.592 124.938 604.89 130.968 611.964C134.198 615.66 137.765 619.047 141.624 622.08L142.83 623.016L143.496 623.502L143.874 623.79C147.222 626.382 150.732 628.812 154.152 631.152C158.904 634.428 163.854 637.362 168.84 640.242C168.975 640.34 169.12 640.425 169.272 640.494L169.938 640.908L170.298 641.088C170.502 641.224 170.712 641.351 170.928 641.466C172.53 642.402 174.132 643.266 175.716 644.274L174.708 645.714C169.472 643.369 164.419 640.637 159.588 637.542L159.3 637.344C158.814 637.056 158.346 636.75 157.878 636.444L156.078 635.328L152.01 632.574C143.962 627.387 136.559 621.26 129.96 614.322L129.6 613.8L129.384 613.548L129.006 613.134L128.43 612.432L127.422 611.172L127.134 610.794C122.162 603.907 117.664 596.69 113.67 589.194C112.914 587.844 112.176 586.53 111.438 585.18L110.196 582.948C109.602 581.814 108.99 580.662 108.396 579.546V579.42C105.534 574.02 102.798 568.62 99.9001 563.31C99.6841 563.112 100.098 562.878 100.242 563.13Z" fill="#FFC727"/>
<path d="M450 806.76C639.667 806.76 793.422 780.786 793.422 748.746C793.422 716.706 639.667 690.732 450 690.732C260.333 690.732 106.578 716.706 106.578 748.746C106.578 780.786 260.333 806.76 450 806.76Z" fill="#EBEBEB"/>
<path d="M316.512 247.59C305.334 256.968 250.38 324.378 168.606 302.652C168.606 302.652 182.664 360.792 210.456 360.792C238.248 360.792 254.862 318.6 254.862 318.6C254.862 318.6 257.886 325.962 265.086 325.314C279.72 324.018 305.658 281.718 316.512 257.904V247.59Z" fill="#FFC727"/>
<path opacity="0.1" d="M316.512 247.59C305.334 256.968 250.38 324.378 168.606 302.652C168.606 302.652 182.664 360.792 210.456 360.792C238.248 360.792 254.862 318.6 254.862 318.6C254.862 318.6 257.886 325.962 265.086 325.314C279.72 324.018 305.658 281.718 316.512 257.904V247.59Z" fill="black"/>
<path opacity="0.1" d="M316.512 247.59V254.376C309.528 264.42 274.986 311.832 241.326 320.004C203.634 329.184 168.606 302.652 168.606 302.652C250.38 324.378 305.334 256.968 316.512 247.59Z" fill="black"/>
<path d="M583.488 247.59C594.666 256.968 649.62 324.378 731.394 302.652C731.394 302.652 717.336 360.792 689.544 360.792C661.752 360.792 645.138 318.6 645.138 318.6C645.138 318.6 642.114 325.962 634.914 325.314C620.28 324.018 594.342 281.718 583.488 257.904V247.59Z" fill="#FFC727"/>
<path opacity="0.1" d="M583.488 247.59C594.666 256.968 649.62 324.378 731.394 302.652C731.394 302.652 717.336 360.792 689.544 360.792C661.752 360.792 645.138 318.6 645.138 318.6C645.138 318.6 642.114 325.962 634.914 325.314C620.28 324.018 594.342 281.718 583.488 257.904V247.59Z" fill="black"/>
<path opacity="0.1" d="M583.488 247.59V254.376C590.472 264.42 625.014 311.832 658.674 320.004C696.366 329.184 731.394 302.652 731.394 302.652C649.62 324.378 594.666 256.968 583.488 247.59Z" fill="black"/>
<path d="M680.868 747.666C670.644 746.406 530.712 701.046 528.156 701.046C525.6 701.046 489.402 704.232 449.982 704.232C410.562 704.232 374.382 701.046 371.826 701.046C369.27 701.046 229.356 746.406 219.132 747.666C208.908 748.926 117 623.718 121.374 619.2C125.748 614.682 159.714 621.756 163.53 621.126C167.346 620.496 232.542 582.804 233.19 579.582C233.838 576.36 243.99 496.53 254.916 433.908C265.842 371.286 288.972 277.308 316.242 247.554C343.512 217.8 410.814 200.754 449.982 200.754C489.15 200.754 556.488 217.782 583.758 247.554C611.028 277.326 634.158 371.286 645.084 433.908C656.01 496.53 666.162 576.396 666.81 579.582C667.458 582.768 732.618 620.496 736.452 621.126C740.286 621.756 774.144 614.736 778.626 619.2C783.108 623.664 691.092 748.962 680.868 747.666Z" fill="#FFC727"/>
<path d="M405.377 206.874C408.131 205.56 420.839 191.826 438.065 187.074C444.023 185.454 433.043 197.874 433.043 197.874C433.043 197.874 458.603 182.502 468.899 178.794C486.089 172.584 494.621 171.288 494.621 174.132C494.621 180.486 467.837 192.438 463.337 197.532C463.337 197.532 479.231 193.68 484.577 197.028C489.923 200.376 470.519 203.76 470.519 203.76L405.377 206.874Z" fill="#FFC727"/>
<path opacity="0.1" d="M401.724 358.542C403.626 367.733 403.93 377.183 402.624 386.478C401.46 395.936 398.334 405.047 393.444 413.226C390.9 417.286 387.878 421.027 384.444 424.368C380.945 427.609 377.078 430.43 372.924 432.774C364.556 437.171 355.357 439.759 345.924 440.37C354.898 438.384 363.505 435.001 371.43 430.344C375.229 427.909 378.769 425.092 381.996 421.938C385.146 418.731 387.918 415.174 390.258 411.336C394.932 403.547 398.147 394.971 399.744 386.028C401.505 376.979 402.17 367.75 401.724 358.542Z" fill="black"/>
<path d="M346.932 312.75C311.76 312.75 294.066 339.75 294.066 371.286C294.066 396.828 314.946 422.91 348.696 422.91C382.446 422.91 403.344 392.31 403.344 368.28C403.344 344.25 385.2 312.75 346.932 312.75Z" fill="white"/>
<path d="M347.4 324.72C319.86 324.72 306 345.852 306 370.53C306 390.6 322.2 410.94 348.696 410.94C375.192 410.94 391.464 386.946 391.464 368.172C391.464 349.398 377.208 324.72 347.4 324.72Z" fill="#263238"/>
<path d="M360 325.152C347.49 325.152 341.208 334.764 341.208 345.96C341.259 348.447 341.804 350.898 342.811 353.172C343.819 355.446 345.268 357.497 347.075 359.206C348.883 360.914 351.012 362.247 353.339 363.124C355.666 364.002 358.144 364.409 360.63 364.32C372.618 364.32 380.052 353.412 380.052 344.898C380.045 342.281 379.519 339.691 378.506 337.279C377.492 334.866 376.009 332.679 374.145 330.843C372.28 329.006 370.07 327.558 367.642 326.581C365.214 325.605 362.617 325.119 360 325.152Z" fill="white"/>
<path d="M315.648 306.27C327.708 308.502 339.75 310.824 351.792 313.164C363.834 315.504 375.876 317.772 387.882 320.238L387.18 323.082L320.58 304.722L321.624 300.276C343.476 304.2 365.328 308.034 387.144 312.066L385.974 317.16L352.8 307.98L319.59 298.674L320.706 293.526L356.238 299.232L391.752 305.028L390.834 309.528L321.984 291.15L322.524 288.288C334.44 289.8 346.32 291.546 358.236 293.166C370.152 294.786 382.032 296.478 393.912 298.242C381.912 297.162 369.954 296.01 358.038 294.786C346.086 293.58 334.116 292.5 322.182 291.186L322.704 288.324L391.968 305.064L391.05 309.564L355.464 304.164L319.896 298.764L321.012 293.634L354.24 302.832L387.45 312.156L386.262 317.25C364.446 313.218 342.666 308.952 320.868 304.812L321.912 300.366L388.062 320.292L387.342 323.154C375.372 320.49 363.456 317.592 351.522 314.82C339.588 312.048 327.6 309.186 315.648 306.27Z" fill="#263238"/>
<path d="M448.2 236.142C413.028 236.142 395.334 263.142 395.334 294.66C395.334 320.202 416.214 346.284 449.964 346.284C483.714 346.284 504.612 315.684 504.612 291.654C504.612 267.624 486.432 236.142 448.2 236.142Z" fill="white"/>
<path d="M448.614 248.094C421.092 248.094 407.214 269.226 407.214 293.922C407.214 313.92 423.558 334.332 449.982 334.332C476.406 334.332 492.75 310.338 492.75 291.564C492.75 272.79 478.512 248.094 448.614 248.094Z" fill="#263238"/>
<path d="M449.37 246.078C436.878 246.078 430.578 255.672 430.578 266.886C430.633 269.37 431.182 271.819 432.191 274.09C433.2 276.361 434.65 278.408 436.457 280.115C438.263 281.821 440.391 283.151 442.715 284.029C445.04 284.907 447.516 285.314 450 285.228C462.006 285.228 469.422 274.338 469.422 265.806C469.412 263.191 468.885 260.603 467.87 258.192C466.855 255.782 465.372 253.596 463.508 251.762C461.644 249.928 459.434 248.481 457.007 247.505C454.581 246.53 451.985 246.045 449.37 246.078Z" fill="white"/>
<path d="M412.2 244.638C424.464 244.374 436.728 244.176 448.992 244.044C461.25 243.9 473.508 243.648 485.766 243.612L485.658 246.564L416.718 242.118L416.844 237.546C439.02 236.952 461.214 236.25 483.444 235.746L483.318 240.984L448.902 238.752L414.504 236.376V231.12L450.504 229.482L486.504 227.934V232.542L415.26 228.6V225.684C427.23 224.748 439.236 224.046 451.26 223.218C463.284 222.39 475.236 221.616 487.26 220.914C475.332 222.294 463.386 223.602 451.422 224.838C439.47 226.08 427.536 227.466 415.584 228.6V225.684L486.81 228.006V232.596L450.81 234.594L414.81 236.394V231.12L449.208 233.37L483.624 235.8L483.498 241.038C461.322 241.506 439.128 241.776 416.898 242.136L417.024 237.564L485.838 243.648L485.712 246.582C473.454 246.402 461.196 246.006 448.938 245.718C436.68 245.43 424.458 245.07 412.2 244.638Z" fill="#263238"/>
<path opacity="0.1" d="M498.6 358.542C498.095 367.743 498.699 376.971 500.4 386.028C501.991 394.97 505.199 403.546 509.868 411.336C512.215 415.174 514.993 418.731 518.148 421.938C521.371 425.097 524.912 427.914 528.714 430.344C536.637 435.004 545.245 438.387 554.22 440.37C544.787 439.759 535.588 437.171 527.22 432.774C523.062 430.436 519.196 427.614 515.7 424.368C512.266 421.027 509.244 417.286 506.7 413.226C501.81 405.047 498.683 395.936 497.52 386.478C496.282 377.173 496.647 367.724 498.6 358.542Z" fill="black"/>
<path d="M553.392 312.75C588.564 312.75 606.24 339.75 606.24 371.286C606.24 396.828 585.378 422.91 551.61 422.91C517.842 422.91 496.98 392.31 496.98 368.28C496.98 344.25 515.196 312.75 553.392 312.75Z" fill="white"/>
<path d="M552.996 324.72C580.536 324.72 594.396 345.852 594.396 370.53C594.396 390.528 578.052 410.94 551.628 410.94C525.204 410.94 508.842 387 508.842 368.172C508.842 349.344 523.098 324.72 552.996 324.72Z" fill="#263238"/>
<path d="M540.252 325.152C552.762 325.152 559.044 334.764 559.044 345.96C558.993 348.447 558.448 350.898 557.441 353.172C556.433 355.446 554.984 357.497 553.176 359.206C551.369 360.914 549.24 362.247 546.913 363.124C544.586 364.002 542.107 364.409 539.622 364.32C527.616 364.32 520.2 353.412 520.2 344.898C520.207 342.281 520.732 339.691 521.746 337.279C522.76 334.866 524.242 332.679 526.107 330.843C527.972 329.006 530.182 327.558 532.61 326.581C535.038 325.605 537.635 325.119 540.252 325.152Z" fill="white"/>
<path d="M584.352 306.27C572.436 309.186 560.502 311.994 548.55 314.784C536.598 317.574 524.7 320.454 512.73 323.118L512.01 320.256L578.16 300.33L579.204 304.776C557.406 308.916 535.626 313.182 513.81 317.214L512.622 312.12L545.832 302.796L579.06 293.598L580.176 298.728L544.608 304.128L509.022 309.528L508.104 305.028L577.368 288.288L577.89 291.15C565.956 292.464 553.986 293.544 542.034 294.75C530.082 295.956 518.13 297.126 506.16 298.206C518.04 296.442 529.932 294.75 541.836 293.13C553.752 291.51 565.632 289.764 577.548 288.252L578.088 291.114L509.238 309.6L508.32 305.1L543.834 299.304L579.366 293.598L580.482 298.746L547.2 307.98L513.954 317.16L512.784 312.066C534.6 308.034 556.452 304.2 578.304 300.276L579.348 304.722L512.748 323.082L512.046 320.238C524.052 317.772 536.112 315.522 548.136 313.164C560.16 310.806 572.292 308.502 584.352 306.27Z" fill="#263238"/>
<path d="M506.736 446.256C504.108 451.656 472.536 444.258 450.018 444.258C426.15 444.258 395.892 451.71 393.264 446.256C390.636 440.802 405 386.712 450 386.712C495 386.712 509.4 440.784 506.736 446.256Z" fill="#263238"/>
<path d="M488.682 447.606C477.18 446.472 462.222 444.258 450.018 444.258C437.22 444.258 422.55 446.418 411.336 447.552C425.502 420.282 440.28 417.978 450.018 428.868C459.738 417.978 474.534 420.282 488.682 447.606Z" fill="#FF99BA"/>
<path d="M423.864 446.148C417.546 446.886 411.588 447.606 406.638 447.948L411.552 429.498L418.752 428.22L423.864 446.148Z" fill="white"/>
<path d="M497.106 448.2C491.958 448.038 485.208 447.246 477.954 446.4L484.83 431.19L493.974 431.82L497.106 448.2Z" fill="white"/>
<path d="M569.322 493.092C566.549 478.279 561.056 464.108 553.122 451.296C545.571 439.256 535.583 428.93 523.8 420.984C515.151 415.148 505.578 410.815 495.486 408.168C494.839 409.769 493.647 411.089 492.12 411.894C490.992 412.282 489.777 412.344 488.615 412.073C487.453 411.802 486.391 411.21 485.55 410.364C484.656 412.395 483.076 414.045 481.086 415.026C478.134 416.142 475.686 413.028 475.686 413.028C475.686 413.028 472.608 420.66 466.848 420.912C461.088 421.164 458.136 411.444 458.136 411.444C458.136 411.444 455.94 416.25 452.43 416.25C448.92 416.25 443.592 409.518 443.592 409.518C443.592 409.518 443.592 409.05 443.592 408.312L441.09 409.086C427.607 413.433 415.175 420.538 404.586 429.948C393.367 439.996 384.108 452.038 377.28 465.462C362.2 495.752 357.253 530.085 363.168 563.4C365.933 578.215 371.426 592.387 379.368 605.196C386.878 617.15 396.842 627.372 408.6 635.184C420.723 643.029 434.401 648.157 448.694 650.213C462.987 652.27 477.556 651.208 491.4 647.1C504.91 642.883 517.363 635.825 527.922 626.4C539.15 616.354 548.41 604.304 555.228 590.868C570.259 560.595 575.198 526.304 569.322 493.02V493.092ZM515.772 535.338C514.433 545.243 511.788 554.927 507.906 564.138C504.628 572.007 500.045 579.267 494.352 585.612C489.422 591.1 483.319 595.407 476.496 598.212C469.932 600.838 462.784 601.658 455.796 600.588C448.653 599.668 441.889 596.846 436.212 592.416C430.468 587.784 425.836 581.922 422.658 575.262C418.982 567.568 416.627 559.311 415.692 550.836C414.568 540.881 414.774 530.821 416.304 520.92C417.637 510.921 420.282 501.141 424.17 491.832C427.461 483.919 432.061 476.617 437.778 470.232C442.708 464.744 448.811 460.437 455.634 457.632C462.338 455.033 469.612 454.262 476.712 455.4C483.714 456.358 490.336 459.159 495.9 463.518C501.621 468.131 506.234 473.968 509.4 480.6C513.096 488.354 515.446 496.681 516.348 505.224C517.465 515.244 517.271 525.368 515.772 535.338Z" fill="#37474F"/>
<path d="M559.8 490.986C557.023 476.174 551.53 462.004 543.6 449.19C536.032 437.151 526.033 426.827 514.242 418.878C505.59 413.044 496.018 408.705 485.928 406.044C485.293 407.656 484.098 408.986 482.562 409.788C481.432 410.171 480.217 410.229 479.055 409.955C477.894 409.682 476.832 409.087 475.992 408.24C475.103 410.278 473.522 411.936 471.528 412.92C468.576 414.018 466.128 410.904 466.128 410.904C466.128 410.904 463.05 418.536 457.29 418.806C451.53 419.076 448.596 409.338 448.596 409.338C448.596 409.338 446.382 414.144 442.872 414.144C439.362 414.144 434.034 407.394 434.034 407.394C434.034 407.394 434.034 406.926 434.034 406.206C433.188 406.44 432.36 406.71 431.532 406.98C418.053 411.317 405.627 418.416 395.046 427.824C383.82 437.877 374.555 449.925 367.722 463.356C352.68 493.626 347.752 527.924 353.664 561.204C356.433 576.018 361.926 590.19 369.864 603C377.35 614.985 387.303 625.239 399.06 633.078C411.182 640.925 424.861 646.054 439.154 648.111C453.447 650.168 468.017 649.105 481.86 644.994C495.368 640.793 507.824 633.761 518.4 624.366C529.63 614.321 538.89 602.271 545.706 588.834C560.759 558.568 565.699 524.27 559.8 490.986ZM506.16 533.214C504.819 543.119 502.174 552.803 498.294 562.014C495.016 569.883 490.433 577.143 484.74 583.488C479.81 588.976 473.707 593.283 466.884 596.088C460.317 598.702 453.173 599.522 446.184 598.464C439.056 597.563 432.296 594.78 426.6 590.4C420.845 585.773 416.207 579.91 413.028 573.246C409.349 565.548 407 557.284 406.08 548.802C404.022 528.742 406.934 508.484 414.558 489.816C417.836 481.901 422.431 474.597 428.148 468.216C433.084 462.735 439.185 458.43 446.004 455.616C452.701 452.993 459.976 452.198 467.082 453.312C474.084 454.26 480.707 457.056 486.27 461.412C492.021 466.049 496.659 471.917 499.842 478.584C503.532 486.339 505.876 494.666 506.772 503.208C507.869 513.194 507.663 523.281 506.16 533.214Z" fill="#455A64"/>
<path d="M471.6 391.464L467.01 416.664H455.832L452.646 393.03L451.26 408.564L439.866 409.104L436.626 388.35C440.986 387.167 445.482 386.562 450 386.55C457.477 386.55 464.859 388.229 471.6 391.464Z" fill="white"/>
<path d="M450 704.232L449.838 704.34L449.658 704.232H450Z" fill="black"/>
<path d="M449.64 704.232H450L449.838 704.34L449.64 704.232Z" fill="black"/>
<path opacity="0.1" d="M360.702 693.9C360.702 693.9 406.908 704.178 449.64 704.232C410.4 704.232 374.4 701.046 371.826 701.046C369.252 701.046 229.374 746.406 219.15 747.666C214.866 748.206 196.398 726.768 176.616 701.244C184.68 706.806 216.738 728.82 220.554 728.82C225 728.82 360.702 693.9 360.702 693.9Z" fill="black"/>
<path opacity="0.1" d="M723.78 700.704C703.854 726.462 685.152 748.224 680.85 747.666C670.626 746.406 530.712 701.046 528.156 701.046C525.6 701.046 489.384 704.232 449.982 704.232C492.732 704.232 538.938 693.9 538.938 693.9C538.938 693.9 674.748 728.82 679.086 728.82C683.028 728.82 717.336 705.168 723.78 700.704Z" fill="black"/>
<path d="M256.914 422.784C256.914 422.784 201.87 488.592 204.426 539.37C206.982 590.148 252.36 625.32 312.732 625.644C312.732 625.644 338.67 629.154 348.732 625.644C348.732 625.644 336.402 605.196 335.124 601.992C335.124 601.992 362.286 594.648 377.622 572.292C377.622 572.292 356.022 562.374 346.068 551.196C346.068 551.196 359.406 531.396 362.268 528.84C362.268 528.84 334.8 530.748 325.206 532.674C325.206 532.674 282.726 530.118 266.112 499.446C249.498 468.774 256.914 422.784 256.914 422.784Z" fill="#FFC727"/>
<path d="M222.624 587.358C228.069 593.779 234.396 599.397 241.416 604.044C248.359 608.754 255.81 612.666 263.628 615.708C265.554 616.5 267.588 617.076 269.55 617.796L272.502 618.804L275.544 619.614L281.61 621.198L287.766 622.332L290.862 622.89C291.888 623.034 292.932 623.106 293.976 623.232L300.204 623.88C304.362 624.186 308.556 624.15 312.804 624.294H313.02C318.925 625.131 324.877 625.6 330.84 625.698C336.734 625.913 342.632 625.375 348.39 624.096L347.4 626.4L340.344 614.7L336.888 608.778C335.754 606.744 334.638 604.89 333.594 602.532L332.874 600.93L334.674 600.354C338.769 599.007 342.763 597.371 346.626 595.458C350.507 593.558 354.259 591.405 357.858 589.014C361.437 586.633 364.804 583.947 367.92 580.986C370.987 578.03 373.744 574.767 376.146 571.248L376.92 573.858C373.932 572.49 371.106 571.032 368.28 569.484C365.454 567.936 362.682 566.298 359.964 564.552C354.416 561.122 349.334 556.99 344.844 552.258L343.998 551.322L344.664 550.26C347.148 546.336 349.686 542.466 352.332 538.632C353.664 536.724 354.996 534.834 356.436 532.962C357.872 530.983 359.526 529.171 361.368 527.562L362.394 530.406C356.22 530.766 350.028 531.234 343.872 531.792C337.716 532.35 331.542 532.962 325.494 533.988H325.35H325.26C316.601 533.668 308.052 531.935 299.952 528.858C291.852 525.853 284.399 521.333 277.992 515.538C271.696 509.664 266.667 502.564 263.214 494.676C259.853 486.826 257.734 478.5 256.932 469.998C258.12 478.403 260.546 486.586 264.132 494.28C267.736 501.904 272.871 508.705 279.216 514.26C285.569 519.745 292.896 523.989 300.816 526.77C308.68 529.604 316.956 531.13 325.314 531.288H325.08C331.272 530.118 337.464 529.362 343.674 528.714C349.884 528.066 356.076 527.616 362.304 527.202L367.128 526.896L363.312 530.064C361.737 531.531 360.314 533.153 359.064 534.906C357.696 536.706 356.382 538.596 355.086 540.486C352.512 544.266 350.01 548.136 347.58 552.024L347.418 550.026C351.701 554.502 356.541 558.41 361.818 561.654C364.47 563.334 367.182 564.918 369.954 566.406C372.708 567.9 375.552 569.322 378.36 570.6L380.304 571.482L379.134 573.282C376.604 577.046 373.664 580.518 370.368 583.632C367.081 586.709 363.541 589.503 359.784 591.984C356.038 594.433 352.136 596.634 348.102 598.572C344.067 600.537 339.899 602.215 335.628 603.594L336.69 601.416C337.482 603.216 338.67 605.304 339.75 607.248L343.134 613.134L350.1 624.834L351.198 626.634L349.146 627.12C343.115 628.443 336.936 628.969 330.768 628.686C324.67 628.465 318.593 627.864 312.57 626.886H312.786C308.538 626.652 304.29 626.616 300.06 626.22L293.724 625.446C292.662 625.302 291.618 625.194 290.556 625.032L287.442 624.402L281.196 623.142L275.058 621.342L271.98 620.478L268.992 619.38C267.012 618.624 264.978 617.976 263.052 617.112C255.224 613.847 247.786 609.718 240.876 604.8C233.96 599.925 227.808 594.046 222.624 587.358Z" fill="#263238"/>
<path d="M220.554 478.89C220.554 478.89 196.038 502.83 195.174 520.11C194.868 526.338 204.354 513.738 204.354 513.738C204.354 513.738 197.37 535.068 198.612 541.62C199.854 548.172 204.462 531.954 204.462 531.954L220.554 478.89Z" fill="#FFC727"/>
<path d="M642.402 419.4C642.402 419.4 682.92 495 670.086 544.23C657.252 593.46 605.682 618.588 546.498 606.6C546.498 606.6 520.38 604.8 511.272 599.292C511.272 599.292 527.472 581.778 529.416 578.916C529.416 578.916 504.324 566.19 493.848 541.116C493.848 541.116 516.996 535.824 529.038 526.896C529.038 526.896 520.038 504.792 517.698 501.696C517.698 501.696 544.212 509.166 553.212 513C553.212 513 595.332 519.138 617.832 492.498C640.332 465.858 642.402 419.4 642.402 419.4Z" fill="#FFC727"/>
<path d="M653.67 576.396C647.552 584.061 640.108 590.566 631.692 595.602C623.293 600.729 614.199 604.621 604.692 607.158C595.165 609.64 585.359 610.887 575.514 610.866C565.672 610.881 555.854 609.898 546.21 607.932H546.426C540.331 607.651 534.259 606.99 528.246 605.952C522.15 604.971 516.207 603.198 510.57 600.678L508.662 599.778L510.102 598.194L519.318 588.15L523.8 583.2C525.24 581.526 526.824 579.726 527.958 578.124L528.57 580.482C524.668 578.263 520.927 575.773 517.374 573.03C513.81 570.318 510.436 567.365 507.276 564.192C504.087 561.015 501.184 557.564 498.6 553.878C495.989 550.165 493.82 546.16 492.138 541.944L491.4 540L493.434 539.55C496.458 538.866 499.518 538.038 502.524 537.156C505.53 536.274 508.518 535.248 511.524 534.15C517.376 532.05 522.94 529.219 528.084 525.726L527.508 527.634C525.942 523.332 524.268 519.03 522.522 514.8C521.64 512.694 520.722 510.588 519.75 508.536C519.264 507.51 518.778 506.502 518.238 505.53C517.763 504.614 517.209 503.74 516.582 502.92L513.198 498.978L518.148 500.346C524.178 502.002 530.136 503.748 536.148 505.602C542.16 507.456 547.992 509.49 553.806 511.902H553.59C561.808 513.444 570.222 513.639 578.502 512.478C586.823 511.372 594.86 508.703 602.19 504.612C609.538 500.423 615.942 494.76 621 487.98C626.067 481.175 630.078 473.644 632.898 465.642C630.424 473.812 626.662 481.535 621.756 488.52C616.773 495.547 610.401 501.477 603.036 505.944C595.583 510.328 587.358 513.242 578.808 514.53C570.248 515.896 561.522 515.847 552.978 514.386H552.834C547.128 512.136 541.224 510.282 535.302 508.5C529.38 506.718 523.404 504.9 517.446 503.37L519.012 500.778C519.831 501.768 520.543 502.842 521.136 503.982C521.712 505.026 522.234 506.088 522.756 507.132C523.764 509.256 524.7 511.38 525.618 513.522C527.418 517.806 529.11 522.108 530.748 526.464L531.18 527.652L530.172 528.39C524.81 532.11 518.998 535.134 512.874 537.39C509.85 538.59 506.802 539.634 503.73 540.522C500.634 541.458 497.556 542.322 494.37 543.042L495.648 540.648C498.955 548.486 503.761 555.604 509.796 561.6C512.832 564.684 516.073 567.559 519.498 570.204C522.891 572.849 526.463 575.255 530.19 577.404L531.828 578.322L530.802 579.744C529.29 581.85 527.832 583.434 526.302 585.144L521.712 590.4L512.424 600.408L511.974 597.942C517.351 600.353 523.012 602.071 528.822 603.054C534.678 604.187 540.6 604.944 546.552 605.322H546.768C556.231 607.4 565.88 608.522 575.568 608.67C585.262 608.833 594.938 607.775 604.368 605.52C613.835 603.264 622.928 599.657 631.368 594.81C635.574 592.373 639.588 589.616 643.374 586.566C647.149 583.542 650.6 580.134 653.67 576.396Z" fill="#263238"/>
<path d="M672.498 518.238C672.498 518.238 678.042 538.218 674.64 549.504C671.238 560.79 670.086 544.212 670.086 544.212C670.086 544.212 668.772 565.398 666.324 566.424C663.876 567.45 665.37 557.64 665.37 557.64L672.498 518.238Z" fill="#FFC727"/>
<g opacity="0.1">
<path opacity="0.1" d="M174.834 629.442C175.662 643.842 205.596 645.642 211.014 630.684C216.432 615.726 173.772 611.28 174.834 629.442Z" fill="black"/>
<path opacity="0.1" d="M631.656 706.086C628.056 717.534 648.396 726.678 656.478 716.346C664.56 706.014 636.156 691.614 631.656 706.086Z" fill="black"/>
<path opacity="0.1" d="M493.38 680.13C492.012 685.044 497.826 687.564 500.49 682.83C503.154 678.096 495.09 673.902 493.38 680.13Z" fill="black"/>
<path opacity="0.1" d="M626.256 572.706C631.26 583.164 654.192 575.442 653.67 562.608C653.148 549.774 619.938 559.458 626.256 572.706Z" fill="black"/>
<path opacity="0.1" d="M230.94 628.398C235.044 632.826 224.244 639.108 221.166 634.68C218.088 630.252 227.646 624.834 230.94 628.398Z" fill="black"/>
<path opacity="0.1" d="M342.27 274.536C337.716 278.442 333.054 270.216 337.518 267.156C341.982 264.096 345.942 271.404 342.27 274.536Z" fill="black"/>
<path opacity="0.1" d="M649.962 538.884C654.048 543.312 643.266 549.594 640.17 545.148C637.074 540.702 646.668 535.32 649.962 538.884Z" fill="black"/>
<path opacity="0.1" d="M216.972 603C228.528 600.966 227.646 620.064 216.972 619.002C206.298 617.94 206.586 604.8 216.972 603Z" fill="black"/>
<path opacity="0.1" d="M242.496 506.142C247.896 505.17 247.554 514.206 242.496 513.72C237.438 513.234 237.6 507.006 242.496 506.142Z" fill="black"/>
<path opacity="0.1" d="M356.67 461.88C362.07 460.908 361.71 469.944 356.67 469.458C351.63 468.972 351.756 462.744 356.67 461.88Z" fill="black"/>
<path opacity="0.1" d="M583.38 280.998C588.78 280.044 588.438 289.08 583.38 288.576C578.322 288.072 578.466 281.88 583.38 280.998Z" fill="black"/>
<path opacity="0.1" d="M246.924 486.738C253.314 480.546 262.548 497.286 255.15 500.49C247.752 503.694 241.2 492.3 246.924 486.738Z" fill="black"/>
<path opacity="0.1" d="M625.32 403.308C634.158 402.354 631.152 421.218 623.34 419.202C615.528 417.186 617.4 404.172 625.32 403.308Z" fill="black"/>
<path opacity="0.1" d="M523.98 684C529.38 691.092 511.65 698.238 509.346 690.498C507.042 682.758 519.156 677.682 523.98 684Z" fill="black"/>
<path opacity="0.1" d="M331.56 242.262C343.116 240.228 342.234 259.326 331.56 258.264C320.886 257.202 321.192 244.098 331.56 242.262Z" fill="black"/>
</g>
<path d="M424.008 725.67L431.028 719.964L440.118 722.808V727.236L424.008 725.67Z" fill="#455A64"/>
<path d="M471.078 725.418L469.296 723.042L475.992 723.672L474.894 725.778L471.078 725.418Z" fill="#455A64"/>
<path d="M458.316 731.394C458.316 731.394 462.222 727.794 462.996 727.236C463.77 726.678 472.896 726.984 472.752 729.324C472.608 731.664 472.104 737.118 471.06 737.118H462.744L458.316 731.394Z" fill="#455A64"/>
<path d="M450.521 718.398L455.165 716.256L459.845 715.77L458.873 719.712L457.847 720.738L452.447 720.342L450.521 718.398Z" fill="#455A64"/>
<path d="M446.4 722.25H447.804L448.74 723.96H445.14C445.14 723.96 444.204 723.708 444.798 723.366C445.392 723.024 446.4 722.25 446.4 722.25Z" fill="#455A64"/>
<path d="M228.24 754.02V693.396H109.44V644.994L245.736 470.052H282.744V644.652H318.6V693.468H282.744V754.02H228.24ZM163.962 644.58H234.342V552.6L163.962 644.58Z" fill="#37474F"/>
<path d="M218.16 754.02V693.396H99.3599V644.994L235.656 470.052H272.664V644.652H308.466V693.468H272.664V754.02H218.16ZM153.882 644.58H224.262V552.6L153.882 644.58Z" fill="#455A64"/>
<path d="M710.316 754.02V693.396H591.516V644.994L727.794 470.052H764.82V644.652H800.64V693.468H764.838V754.02H710.316ZM646.038 644.58H716.4V552.6L646.038 644.58Z" fill="#37474F"/>
<path d="M700.2 754.02V693.396H581.4V644.994L717.678 470.052H754.704V644.652H790.56V693.468H754.758V754.02H700.2ZM635.922 644.58H706.302V552.6L635.922 644.58Z" fill="#455A64"/>
<path d="M368.46 145.404C365.823 145.438 363.213 144.872 360.828 143.748C358.597 142.691 356.597 141.205 354.942 139.374C351.642 135.698 349.804 130.94 349.776 126C349.772 123.481 350.261 120.986 351.216 118.656C352.14 116.363 353.476 114.258 355.158 112.446C356.841 110.634 358.866 109.172 361.116 108.144C363.472 107.074 366.034 106.533 368.622 106.56C371.251 106.524 373.852 107.104 376.218 108.252C378.441 109.343 380.429 110.86 382.068 112.716C383.693 114.561 384.973 116.682 385.848 118.98C386.742 121.275 387.2 123.717 387.198 126.18C387.207 128.684 386.73 131.166 385.794 133.488C384.89 135.763 383.571 137.85 381.906 139.644C380.226 141.443 378.207 142.893 375.966 143.91C373.603 144.949 371.041 145.459 368.46 145.404ZM357.336 126C357.332 127.632 357.587 129.254 358.092 130.806C358.568 132.296 359.312 133.687 360.288 134.91C361.268 136.111 362.496 137.087 363.888 137.772C365.367 138.497 366.993 138.874 368.64 138.874C370.287 138.874 371.913 138.497 373.392 137.772C374.79 137.067 376.019 136.065 376.992 134.838C377.953 133.598 378.684 132.196 379.152 130.698C379.632 129.191 379.875 127.618 379.872 126.036C379.878 124.402 379.617 122.779 379.098 121.23C378.568 119.684 377.756 118.25 376.704 117C375.752 115.811 374.555 114.841 373.194 114.156C371.712 113.451 370.092 113.085 368.451 113.085C366.81 113.085 365.19 113.451 363.708 114.156C362.341 114.863 361.144 115.858 360.198 117.072C359.252 118.303 358.532 119.693 358.074 121.176C357.573 122.735 357.324 124.363 357.336 126Z" fill="#263238"/>
<path d="M405.288 145.674C403.158 145.708 401.044 145.303 399.078 144.486C397.319 143.743 395.733 142.646 394.416 141.264C393.136 139.918 392.133 138.334 391.464 136.602C390.095 133.002 390.095 129.024 391.464 125.424C392.132 123.686 393.135 122.096 394.416 120.744C395.734 119.368 397.321 118.277 399.078 117.54C403.06 115.956 407.498 115.956 411.48 117.54C413.227 118.286 414.806 119.376 416.124 120.744C417.393 122.101 418.389 123.69 419.058 125.424C420.426 129.024 420.426 133.002 419.058 136.602C418.394 138.329 417.404 139.912 416.142 141.264C414.835 142.65 413.253 143.747 411.498 144.486C409.531 145.303 407.417 145.708 405.288 145.674ZM397.89 131.04C397.877 132.205 398.072 133.363 398.466 134.46C398.817 135.443 399.348 136.353 400.032 137.142C400.67 137.907 401.469 138.521 402.372 138.942C403.288 139.358 404.282 139.573 405.288 139.573C406.294 139.573 407.288 139.358 408.204 138.942C409.106 138.512 409.909 137.899 410.562 137.142C411.249 136.349 411.781 135.433 412.128 134.442C412.514 133.331 412.703 132.162 412.686 130.986C412.7 129.828 412.511 128.677 412.128 127.584C411.781 126.593 411.249 125.677 410.562 124.884C409.909 124.127 409.106 123.514 408.204 123.084C407.288 122.67 406.293 122.461 405.288 122.472C404.279 122.464 403.282 122.685 402.372 123.12C401.476 123.552 400.679 124.165 400.032 124.92C399.344 125.713 398.813 126.629 398.466 127.62C398.074 128.717 397.879 129.875 397.89 131.04Z" fill="#263238"/>
<path d="M438.012 145.674C435.882 145.708 433.769 145.304 431.802 144.486C430.038 143.743 428.445 142.646 427.122 141.264C425.853 139.913 424.857 138.33 424.188 136.602C422.82 133.002 422.82 129.024 424.188 125.424C424.857 123.69 425.853 122.101 427.122 120.744C428.446 119.367 430.039 118.277 431.802 117.54C433.769 116.722 435.882 116.318 438.012 116.352C440.13 116.316 442.232 116.721 444.186 117.54C445.938 118.277 447.519 119.368 448.83 120.744C450.11 122.096 451.113 123.686 451.782 125.424C453.15 129.024 453.15 133.002 451.782 136.602C451.118 138.329 450.128 139.912 448.866 141.264C447.559 142.65 445.977 143.747 444.222 144.486C442.255 145.304 440.141 145.708 438.012 145.674ZM430.614 131.04C430.604 132.203 430.793 133.36 431.172 134.46C431.523 135.443 432.054 136.353 432.738 137.142C433.386 137.904 434.19 138.517 435.096 138.942C436.012 139.358 437.006 139.573 438.012 139.573C439.018 139.573 440.012 139.358 440.928 138.942C441.83 138.512 442.633 137.899 443.286 137.142C443.961 136.343 444.486 135.428 444.834 134.442C445.235 133.335 445.43 132.163 445.41 130.986C445.427 129.826 445.232 128.673 444.834 127.584C444.486 126.598 443.961 125.683 443.286 124.884C442.633 124.127 441.83 123.514 440.928 123.084C440.012 122.67 439.017 122.461 438.012 122.472C437.003 122.464 436.006 122.685 435.096 123.12C434.196 123.554 433.394 124.166 432.738 124.92C432.05 125.713 431.519 126.629 431.172 127.62C430.795 128.721 430.607 129.877 430.614 131.04Z" fill="#263238"/>
<path d="M474.624 145.674C472.58 145.72 470.563 145.203 468.792 144.18C467.159 143.216 465.816 141.829 464.904 140.166V156.6H457.704V116.838H464.022V121.698C465.008 120.085 466.374 118.737 468 117.774C469.748 116.799 471.724 116.308 473.724 116.352C475.552 116.332 477.362 116.725 479.016 117.504C480.614 118.242 482.047 119.295 483.228 120.6C484.43 121.977 485.37 123.564 486 125.28C486.659 127.091 486.994 129.004 486.99 130.932C486.991 132.93 486.656 134.913 486 136.8C485.435 138.509 484.563 140.102 483.426 141.498C482.36 142.806 481.029 143.874 479.52 144.63C477.991 145.351 476.315 145.709 474.624 145.674ZM472.194 139.518C473.238 139.525 474.268 139.285 475.2 138.816C476.101 138.352 476.897 137.709 477.54 136.926C478.204 136.105 478.716 135.173 479.052 134.172C479.412 133.13 479.595 132.034 479.592 130.932C479.602 129.795 479.4 128.666 478.998 127.602C478.622 126.616 478.06 125.711 477.342 124.938C476.644 124.177 475.799 123.564 474.858 123.138C473.885 122.701 472.829 122.48 471.762 122.49C471.046 122.492 470.336 122.607 469.656 122.832C468.943 123.065 468.27 123.405 467.658 123.84C467.048 124.276 466.492 124.784 466.002 125.352C465.537 125.885 465.165 126.494 464.904 127.152V133.794C465.522 135.371 466.547 136.755 467.874 137.808C469.069 138.867 470.598 139.472 472.194 139.518Z" fill="#263238"/>
<path d="M502.596 145.674C500.228 145.675 497.875 145.292 495.63 144.54C493.491 143.856 491.509 142.755 489.798 141.3L492.498 136.764C494.056 137.894 495.749 138.825 497.538 139.536C499.097 140.153 500.757 140.477 502.434 140.49C503.61 140.547 504.778 140.265 505.8 139.68C506.194 139.438 506.517 139.095 506.735 138.687C506.953 138.279 507.059 137.82 507.042 137.358C507.054 136.884 506.921 136.418 506.66 136.022C506.399 135.627 506.024 135.32 505.584 135.144C504.046 134.478 502.456 133.937 500.832 133.524C498.996 133.02 497.43 132.534 496.134 132.066C495.017 131.688 493.962 131.148 493.002 130.464C492.236 129.945 491.616 129.239 491.202 128.412C490.821 127.539 490.637 126.592 490.662 125.64C490.638 124.298 490.921 122.968 491.49 121.752C492.076 120.593 492.92 119.583 493.956 118.8C495.033 117.98 496.254 117.369 497.556 117C498.983 116.556 500.471 116.338 501.966 116.352C503.988 116.337 506 116.647 507.924 117.27C509.796 117.889 511.522 118.881 513 120.186L510.084 124.56C508.778 123.565 507.335 122.765 505.8 122.184C504.518 121.692 503.158 121.436 501.786 121.428C500.71 121.39 499.644 121.652 498.708 122.184C498.298 122.436 497.966 122.797 497.747 123.225C497.528 123.654 497.431 124.134 497.466 124.614C497.446 125.047 497.546 125.476 497.754 125.856C497.996 126.218 498.324 126.515 498.708 126.72C499.246 127.016 499.813 127.257 500.4 127.44C501.102 127.674 501.984 127.926 503.028 128.178C504.972 128.682 506.628 129.186 508.014 129.69C509.228 130.126 510.373 130.732 511.416 131.49C512.237 132.064 512.904 132.83 513.36 133.722C513.8 134.681 514.016 135.727 513.99 136.782C514.039 138.041 513.785 139.293 513.249 140.433C512.714 141.573 511.912 142.568 510.912 143.334C508.479 145.02 505.551 145.844 502.596 145.674Z" fill="#263238"/>
<path d="M518.58 145.134V137.358H524.519V145.134H518.58Z" fill="#263238"/>
<path d="M530.73 145.134V137.358H536.67V145.134H530.73Z" fill="#263238"/>
<path d="M542.88 145.134V137.358H548.82V145.134H542.88Z" fill="#263238"/>
<path d="M390.114 788.976V795.6H363.492V757.26H389.628V763.794H370.944V773.028H387.144V779.076H370.944V789.066L390.114 788.976Z" fill="#263238"/>
<path d="M396 795.6V757.26H412.956C414.652 757.247 416.329 757.629 417.852 758.376C419.309 759.095 420.616 760.085 421.704 761.292C422.785 762.5 423.644 763.889 424.242 765.396C424.841 766.859 425.153 768.423 425.16 770.004C425.215 772.391 424.591 774.744 423.36 776.79C422.2 778.761 420.431 780.302 418.32 781.182L427.068 795.582H418.698L410.868 782.73H403.524V795.6H396ZM403.452 776.214H412.794C413.467 776.217 414.129 776.05 414.72 775.728C415.317 775.402 415.838 774.955 416.25 774.414C416.701 773.817 417.048 773.147 417.276 772.434C417.533 771.65 417.66 770.829 417.654 770.004C417.663 769.157 417.517 768.315 417.222 767.52C416.951 766.806 416.561 766.143 416.07 765.558C415.606 765.017 415.036 764.576 414.396 764.262C413.798 763.961 413.139 763.801 412.47 763.794H403.47L403.452 776.214Z" fill="#263238"/>
<path d="M431.856 795.6V757.26H448.812C450.508 757.247 452.185 757.629 453.708 758.376C455.165 759.095 456.472 760.085 457.56 761.292C458.641 762.5 459.5 763.889 460.098 765.396C460.697 766.859 461.009 768.423 461.016 770.004C461.071 772.391 460.447 774.744 459.216 776.79C458.056 778.761 456.287 780.302 454.176 781.182L462.924 795.582H454.554L446.724 782.73H439.38V795.6H431.856ZM439.308 776.214H448.65C449.323 776.217 449.985 776.05 450.576 775.728C451.173 775.402 451.694 774.955 452.106 774.414C452.557 773.817 452.904 773.147 453.132 772.434C453.388 771.65 453.516 770.829 453.51 770.004C453.519 769.157 453.373 768.315 453.078 767.52C452.807 766.806 452.417 766.143 451.926 765.558C451.462 765.017 450.892 764.576 450.252 764.262C449.654 763.961 448.995 763.801 448.326 763.794H439.326L439.308 776.214Z" fill="#263238"/>
<path d="M484.2 795.78C481.559 795.82 478.943 795.26 476.55 794.142C474.328 793.08 472.334 791.595 470.682 789.768C467.377 786.074 465.539 781.297 465.516 776.34C465.503 773.821 465.992 771.324 466.956 768.996C467.874 766.704 469.204 764.599 470.88 762.786C472.571 760.979 474.602 759.524 476.856 758.502C479.211 757.426 481.773 756.879 484.362 756.9C486.992 756.873 489.593 757.458 491.958 758.61C494.18 759.695 496.168 761.205 497.808 763.056C499.433 764.901 500.713 767.023 501.588 769.32C502.482 771.615 502.94 774.057 502.938 776.52C502.947 779.03 502.47 781.518 501.534 783.846C500.63 786.121 499.311 788.208 497.646 790.002C495.966 791.801 493.947 793.251 491.706 794.268C489.344 795.313 486.782 795.829 484.2 795.78ZM473.076 776.34C473.072 777.972 473.327 779.594 473.832 781.146C474.302 782.635 475.04 784.026 476.01 785.25C476.998 786.444 478.224 787.419 479.61 788.112C481.087 788.834 482.709 789.209 484.353 789.209C485.997 789.209 487.619 788.834 489.096 788.112C490.49 787.392 491.717 786.386 492.696 785.16C493.651 783.925 494.376 782.529 494.838 781.038C495.845 777.956 495.845 774.634 494.838 771.552C494.334 770.07 493.585 768.683 492.624 767.448C491.644 766.255 490.415 765.291 489.024 764.622C487.549 763.903 485.93 763.529 484.29 763.529C482.649 763.529 481.03 763.903 479.556 764.622C478.189 765.329 476.992 766.324 476.046 767.538C475.1 768.769 474.38 770.159 473.922 771.642C473.362 773.148 473.052 774.735 473.004 776.34H473.076Z" fill="#263238"/>
<path d="M508.59 795.6V757.26H525.6C527.296 757.249 528.972 757.631 530.496 758.376C531.953 759.095 533.26 760.085 534.348 761.292C535.429 762.5 536.288 763.889 536.886 765.396C537.485 766.859 537.797 768.423 537.804 770.004C537.859 772.391 537.235 774.744 536.004 776.79C534.843 778.761 533.075 780.302 530.964 781.182L539.712 795.582H531.342L523.512 782.73H516.168V795.6H508.59ZM516.042 776.214H525.384C526.057 776.217 526.719 776.05 527.31 775.728C527.906 775.402 528.428 774.955 528.84 774.414C529.291 773.817 529.638 773.147 529.866 772.434C530.122 771.65 530.25 770.829 530.244 770.004C530.253 769.157 530.106 768.315 529.812 767.52C529.541 766.806 529.151 766.143 528.66 765.558C528.188 765.018 527.612 764.577 526.968 764.262C526.377 763.96 525.724 763.799 525.06 763.794H516.06L516.042 776.214Z" fill="#263238"/>
<path d="M753.93 187.83C752.55 200.959 747.549 213.446 739.485 223.899C731.421 234.351 720.612 242.358 708.263 247.025C695.914 251.692 682.511 252.836 669.55 250.329C656.589 247.823 644.579 241.765 634.86 232.83L599.202 238.068L617.04 207.234C612.583 196.382 610.9 184.591 612.144 172.926C613.099 163.601 615.884 154.556 620.339 146.309C624.795 138.062 630.833 130.775 638.108 124.864C645.383 118.954 653.753 114.536 662.738 111.865C671.723 109.193 681.146 108.32 690.469 109.295C699.792 110.27 708.831 113.075 717.068 117.548C725.306 122.021 732.58 128.075 738.475 135.363C744.37 142.651 748.769 151.031 751.421 160.021C754.073 169.012 754.926 178.437 753.93 187.758V187.83Z" fill="white"/>
<path d="M753.93 187.83C752.54 200.966 747.558 213.466 739.53 223.956C737.532 226.565 735.374 229.048 733.068 231.39C730.691 233.663 728.178 235.791 725.544 237.762C720.295 241.746 714.508 244.964 708.354 247.32C702.213 249.763 695.761 251.339 689.184 252C685.893 252.294 682.584 252.354 679.284 252.18C675.974 252.1 672.676 251.756 669.42 251.154C656.276 248.746 644.064 242.718 634.158 233.748L635.004 234L599.4 239.4L596.808 239.796L598.122 237.528L615.852 206.64V207.846C611.67 197.63 609.89 186.589 610.648 175.576C611.406 164.563 614.683 153.871 620.226 144.324C625.76 134.841 633.365 126.731 642.474 120.6C651.601 114.555 661.977 110.656 672.826 109.194C683.674 107.732 694.713 108.745 705.114 112.158C715.416 115.64 724.808 121.384 732.6 128.97C740.378 136.527 746.338 145.752 750.033 155.947C753.728 166.143 755.06 177.044 753.93 187.83ZM753.93 187.83C755.069 177.104 753.732 166.26 750.022 156.132C746.312 146.004 740.328 136.863 732.53 129.411C724.732 121.959 715.328 116.395 705.043 113.148C694.757 109.901 683.863 109.058 673.2 110.682C662.589 112.283 652.485 116.292 643.662 122.4C634.959 128.526 627.688 136.467 622.35 145.674C617.107 154.914 614.03 165.222 613.35 175.824C612.689 186.419 614.405 197.028 618.372 206.874L618.624 207.504L618.282 208.098L600.282 238.86L599.004 236.97L634.698 231.984H635.202L635.544 232.308C645.085 241.239 656.929 247.33 669.744 249.894C672.931 250.535 676.163 250.926 679.41 251.064C682.658 251.298 685.918 251.298 689.166 251.064C695.679 250.562 702.089 249.151 708.21 246.87C714.363 244.647 720.156 241.53 725.4 237.618C728.033 235.678 730.545 233.58 732.924 231.336C735.236 229.02 737.4 226.561 739.404 223.974C747.492 213.499 752.519 200.988 753.93 187.83Z" fill="#263238"/>
<path d="M637.434 169.2C638.35 171.39 639.628 173.41 641.214 175.176C640.98 180.072 644.382 184.59 647.748 187.776C651.746 191.46 656.295 194.496 661.23 196.776C669.443 200.473 678.121 203.034 687.024 204.39C686.538 211.41 683.946 218.358 681.354 224.892C681.354 225.054 681.552 225.126 681.624 224.892C684.234 218.43 687.024 211.5 687.852 204.462C689.604 204.75 691.35 205.02 693.09 205.272C695.754 205.65 698.49 205.938 701.28 206.082C706.054 206.697 710.87 206.919 715.68 206.748C721.346 206.813 726.857 204.904 731.268 201.348C733.236 199.612 734.691 197.372 735.478 194.869C736.265 192.366 736.353 189.695 735.732 187.146C735.177 184.849 734.311 182.639 733.158 180.576C732.498 179.131 731.734 177.735 730.872 176.4C727.91 172.109 724.233 168.358 720 165.312C718.884 164.484 717.75 163.692 716.58 162.918C716.436 162.774 716.292 162.612 716.13 162.468C711.919 158.625 707.156 155.433 702 153C691.276 147.772 679.548 144.923 667.62 144.648C661.617 144.496 655.616 145.015 649.728 146.196C644.58 147.258 639.54 149.364 637.128 154.386C635.558 157.981 635.297 162.013 636.39 165.78C636.6 166.958 636.95 168.106 637.434 169.2ZM697.086 203.706C694.062 203.274 691.038 202.734 688.086 202.068C688.086 201.708 688.086 201.348 688.086 200.97C688.752 201.078 689.436 201.168 690.102 201.24C690.768 201.312 691.326 201.348 691.902 201.366C697.503 202.298 703.185 202.648 708.858 202.41C713.924 202.196 718.955 201.46 723.87 200.214C716.796 204.048 707.778 204.534 700.056 203.994C699.102 203.976 698.094 203.868 697.086 203.76V203.706ZM678.726 152.028C680.31 152.316 681.876 152.658 683.424 153.018C679.332 153.055 675.273 153.748 671.4 155.07C667.161 156.44 663.409 159.01 660.6 162.468C658.47 163.045 656.42 163.886 654.498 164.97C654.048 164.97 653.616 164.97 653.166 165.114C651.48 165.353 649.829 165.8 648.252 166.446C648.252 166.23 648.252 166.014 648.252 165.816C648.252 160.866 652.194 157.518 656.334 155.61C661.054 153.587 666.093 152.411 671.22 152.136C673.719 151.956 676.226 151.938 678.726 152.082V152.028ZM649.674 174.492C650.142 175.122 650.646 175.734 651.168 176.292C650.653 176.717 650.188 177.2 649.782 177.732C649.577 176.664 649.541 175.571 649.674 174.492ZM687.078 200.862C687.078 201.204 687.078 201.546 687.078 201.888C682.855 200.951 678.694 199.749 674.622 198.288C677.16 198.918 679.716 199.476 682.29 199.98C683.892 200.268 685.494 200.592 687.078 200.862ZM685.908 194.022C675.011 191.866 664.501 188.08 654.732 182.79C653.49 182.106 652.23 181.368 651.024 180.594C651.353 179.57 651.98 178.668 652.824 178.002C657.146 181.705 662.048 184.673 667.332 186.786C672.925 189.085 678.639 191.074 684.45 192.744C684.608 192.8 684.779 192.806 684.94 192.761C685.101 192.716 685.245 192.622 685.35 192.492C685.388 192.573 685.418 192.657 685.44 192.744C685.656 193.158 685.8 193.59 685.908 194.022ZM656.046 178.2C655.554 177.816 655.068 177.42 654.588 177.012C656.742 176.331 659.043 176.269 661.23 176.832C666.394 177.73 671.394 179.399 676.062 181.782C679.818 183.804 682.845 186.951 684.72 190.782C674.766 187.812 664.47 184.59 656.046 178.2ZM686.484 196.2C686.625 196.794 686.733 197.395 686.808 198H686.718L684.36 197.532L681.084 196.596C675.485 194.88 670.061 192.638 664.884 189.9C670.682 192.226 676.66 194.074 682.758 195.426C684 195.768 685.26 196.002 686.484 196.2ZM687.78 196.434C691.074 197.028 694.404 197.46 697.752 197.766C696.32 198.45 694.749 198.794 693.162 198.774C691.422 198.768 689.687 198.599 687.978 198.27C687.924 197.694 687.87 197.082 687.78 196.47V196.434ZM664.596 192.132L663.786 191.826C661.435 190.814 659.172 189.61 657.018 188.226L655.038 186.984C654.732 186.66 654.426 186.354 654.138 186.03L653.616 185.382C657.118 187.891 660.786 190.159 664.596 192.168V192.132ZM650.304 172.116C651.17 170.076 652.624 168.341 654.48 167.13C656.091 166.986 657.712 166.986 659.322 167.13C659.756 168.29 660.519 169.297 661.518 170.028C663.717 171.76 666.026 173.348 668.43 174.78C677.203 180.033 686.953 183.444 697.086 184.806C698.678 186.717 699.816 188.963 700.416 191.376C700.801 192.956 700.57 194.623 699.768 196.038C695.606 195.71 691.465 195.145 687.366 194.346C687.204 193.716 687.042 193.068 686.826 192.438C685.245 187.411 681.851 183.151 677.304 180.486C672.486 177.801 667.274 175.893 661.86 174.834C658.93 173.975 655.798 174.108 652.95 175.212L652.77 175.32C651.852 174.343 651.027 173.282 650.304 172.152V172.116ZM720.09 181.296C719.249 181.976 718.254 182.439 717.192 182.646C714.473 178.278 710.897 174.506 706.68 171.558C698.396 165.321 688.506 161.574 678.168 160.758C673.504 160.391 668.811 160.657 664.218 161.55L664.596 161.226C666.265 159.781 668.147 158.603 670.176 157.734C677.952 154.314 687.168 154.62 695.376 156.438L695.988 156.654C704.552 159.651 712.553 164.062 719.658 169.704L719.91 170.1C721.8 173.322 723.276 178.578 720.09 181.332V181.296ZM662.076 163.872C666.125 162.825 670.297 162.328 674.478 162.396C684.017 162.526 693.344 165.224 701.478 170.208C705.572 172.709 709.282 175.789 712.494 179.352C713.508 180.467 714.417 181.672 715.212 182.952L712.782 183.15C710.112 183.363 707.432 183.423 704.754 183.33C702.702 183.33 700.668 183.096 698.652 182.862L698.472 182.646C691.65 174.402 681.3 170.046 671.256 167.148C668.036 166.179 664.744 165.469 661.41 165.024C661.582 164.624 661.806 164.249 662.076 163.908V163.872ZM664.344 167.724C669.402 168.752 674.35 170.259 679.122 172.224C683.74 174.02 688.06 176.502 691.938 179.586C693 180.463 694.016 181.394 694.98 182.376C687.912 181.187 681.058 178.961 674.64 175.77C672.35 174.62 670.121 173.353 667.962 171.972C666.762 171.216 665.61 170.424 664.506 169.596C663.484 168.989 662.546 168.251 661.716 167.4C662.598 167.4 663.48 167.598 664.344 167.76V167.724ZM715.536 192.924C712.836 195.948 707.994 196.272 704.214 196.182H702.576C704.07 192.582 702.468 188.478 700.29 185.184C705.567 185.772 710.897 185.675 716.148 184.896C716.869 186.149 717.197 187.59 717.088 189.031C716.978 190.473 716.438 191.848 715.536 192.978V192.924ZM649.26 170.172C649.046 169.687 648.865 169.188 648.72 168.678C649.456 168.343 650.213 168.06 650.988 167.832C650.716 168.107 650.458 168.395 650.214 168.696C649.851 169.157 649.531 169.651 649.26 170.172ZM729.108 196.452C727.897 196.971 726.645 197.386 725.364 197.694C720.585 199.065 715.673 199.922 710.712 200.25C706.761 200.514 702.795 200.472 698.85 200.124C699.833 199.629 700.699 198.929 701.388 198.072H701.568C706.014 198.324 711.144 198.396 715.032 195.858C715.988 195.252 716.814 194.463 717.462 193.536C718.111 192.609 718.57 191.563 718.812 190.458C719.178 188.412 718.914 186.303 718.056 184.41C719.06 184.192 720.008 183.77 720.841 183.169C721.674 182.568 722.375 181.802 722.898 180.918C723.813 179.068 724.11 176.973 723.744 174.942C723.628 174.217 723.46 173.501 723.24 172.8C726.513 175.576 729.283 178.895 731.43 182.61C732.776 184.918 733.248 187.633 732.762 190.26C732.202 192.499 731.038 194.541 729.396 196.164L729.108 196.452ZM647.28 177.93C645.962 176.761 644.711 175.517 643.536 174.204C643.775 173.237 644.205 172.327 644.802 171.529C645.399 170.732 646.15 170.062 647.01 169.56C647.36 170.552 647.799 171.51 648.324 172.422C647.747 174.432 647.679 176.553 648.126 178.596L647.28 177.93ZM639.162 167.4C638.161 164.658 638.277 161.633 639.486 158.976C640.58 156.899 642.113 155.084 643.978 153.657C645.842 152.23 647.995 151.226 650.286 150.714C655.686 149.274 661.536 149.796 667.08 150.354L667.944 150.462C663.73 150.98 659.613 152.108 655.722 153.81C651.366 155.772 647.262 159.21 646.488 164.106C646.335 165.169 646.335 166.248 646.488 167.31C644.458 168.377 642.838 170.086 641.88 172.17C640.773 170.703 639.86 169.1 639.162 167.4ZM703.062 155.79C698.452 153.866 693.666 152.395 688.77 151.398C685.947 150.827 683.092 150.431 680.22 150.21C677.124 149.574 674.028 149.052 670.932 148.644C660.456 147.276 647.028 145.728 639.486 154.926C639.234 155.232 639.036 155.556 638.82 155.862C639.203 154.875 639.725 153.948 640.368 153.108C642.036 151.168 644.241 149.765 646.704 149.076C651.97 147.546 657.421 146.747 662.904 146.7C673.919 146.331 684.893 148.205 695.16 152.208C697.86 153.252 700.498 154.448 703.062 155.79ZM719.046 204.678L718.146 204.786C721.082 203.975 723.893 202.763 726.498 201.186C727.855 200.34 729.122 199.357 730.278 198.252C731.038 197.894 731.742 197.427 732.366 196.866C732.484 196.755 732.592 196.634 732.69 196.506C732.474 196.928 732.234 197.337 731.97 197.73C729 201.978 724.014 203.976 719.046 204.678ZM645.246 181.458C644.556 180.336 644.023 179.125 643.662 177.858C645.011 179.075 646.436 180.205 647.928 181.242L648.216 181.476C648.215 182.568 648.457 183.646 648.924 184.633C649.391 185.62 650.071 186.491 650.916 187.182C653.048 189.095 655.405 190.739 657.936 192.078C658.836 192.726 659.736 193.356 660.726 193.878C661.716 194.4 663.048 195.21 664.326 195.84C661.47 194.616 658.714 193.172 656.082 191.52C651.775 189.016 648.084 185.578 645.282 181.458H645.246Z" fill="#263238"/>
</svg>
